<?xml version="1.0" encoding="utf-8"?>
<!-- Generator: Adobe Illustrator 23.1.1, SVG Export Plug-In . SVG Version: 6.00 Build 0)  -->
<svg version="1.1" id="Calque_1" xmlns="http://www.w3.org/2000/svg" xmlns:xlink="http://www.w3.org/1999/xlink" x="0px" y="0px"
	 viewBox="0 0 27.6 21.4" style="enable-background:new 0 0 27.6 21.4;" xml:space="preserve">
<style type="text/css">
	.st0{clip-path:url(#SVGID_2_);}
	.st1{fill:#30ABA3;}
</style>
<g id="Groupe_308" transform="translate(0.136 0.436)">
	<g>
		<defs>
			<rect id="SVGID_1_" x="1.6" y="0.5" width="25" height="19"/>
		</defs>
		<clipPath id="SVGID_2_">
			<use xlink:href="#SVGID_1_"  style="overflow:visible;"/>
		</clipPath>
		<g id="Groupe_5" transform="translate(0 0)" class="st0">
			<path id="Tracé_131" class="st1" d="M22.2,2.6c-1.6-0.7-3.2-1.2-4.9-1.5c0,0-0.1,0-0.1,0c-0.2,0.4-0.4,0.8-0.6,1.2
				c-1.8-0.3-3.7-0.3-5.5,0c-0.2-0.4-0.4-0.8-0.6-1.2c0,0,0,0-0.1,0C8.8,1.3,7.2,1.9,5.6,2.6c0,0,0,0,0,0c-2.8,4-4,8.8-3.5,13.6
				c0,0,0,0,0,0.1c1.8,1.3,3.8,2.4,6,3c0,0,0.1,0,0.1,0c0.5-0.6,0.9-1.3,1.2-2c0,0,0-0.1,0-0.1c0,0,0,0,0,0C8.7,17,8,16.7,7.4,16.3
				c0,0,0-0.1,0-0.1c0,0,0,0,0,0c0.1-0.1,0.3-0.2,0.4-0.3c0,0,0.1,0,0.1,0c3.8,1.8,8.2,1.8,12,0c0,0,0.1,0,0.1,0
				c0.1,0.1,0.2,0.2,0.4,0.3c0,0,0,0.1,0,0.1c0,0,0,0,0,0c-0.6,0.3-1.2,0.6-1.9,0.9c0,0-0.1,0.1,0,0.1c0,0,0,0,0,0
				c0.4,0.7,0.8,1.4,1.2,2c0,0,0.1,0,0.1,0c2.2-0.7,4.2-1.7,6-3c0,0,0,0,0-0.1C26.3,11.4,25,6.6,22.2,2.6
				C22.2,2.6,22.2,2.6,22.2,2.6 M9.9,13.5c-1.3-0.1-2.2-1.2-2.2-2.4C7.7,9.8,8.7,8.8,9.9,8.7c1.3,0.1,2.2,1.1,2.2,2.4c0,0,0,0,0,0
				C12.2,12.4,11.2,13.4,9.9,13.5 M17.9,13.5c-1.3-0.1-2.2-1.2-2.2-2.4c-0.1-1.3,0.9-2.3,2.2-2.4c1.3,0.1,2.2,1.1,2.2,2.4
				c0,0,0,0,0,0C20.1,12.4,19.2,13.4,17.9,13.5C17.9,13.5,17.9,13.5,17.9,13.5"/>
		</g>
	</g>
</g>
</svg>
