<?xml version="1.0" encoding="utf-8"?>
<!-- Generator: Adobe Illustrator 23.1.1, SVG Export Plug-In . SVG Version: 6.00 Build 0)  -->
<svg version="1.1" id="Calque_1" xmlns="http://www.w3.org/2000/svg" xmlns:xlink="http://www.w3.org/1999/xlink" x="0px" y="0px"
	 viewBox="0 0 27.6 26.6" style="enable-background:new 0 0 27.6 26.6;" xml:space="preserve">
<style type="text/css">
	.st0{fill:#30ABA3;}
</style>
<path id="Icon_awesome-instagram" class="st0" d="M13.5,7.1c-3.5,0-6.3,2.8-6.3,6.3s2.8,6.3,6.3,6.3s6.3-2.8,6.3-6.3
	C19.8,10,17,7.1,13.5,7.1C13.5,7.1,13.5,7.1,13.5,7.1z M13.5,17.5c-2.3,0-4.1-1.8-4.1-4.1s1.8-4.1,4.1-4.1s4.1,1.8,4.1,4.1v0
	C17.6,15.7,15.8,17.5,13.5,17.5z M21.5,6.9c0,0.8-0.7,1.5-1.5,1.5c-0.8,0-1.5-0.7-1.5-1.5c0-0.8,0.7-1.5,1.5-1.5c0,0,0,0,0,0
	C20.9,5.4,21.5,6.1,21.5,6.9C21.5,6.9,21.5,6.9,21.5,6.9L21.5,6.9z M25.7,8.4c0-1.9-0.7-3.8-2-5.1c-1.4-1.3-3.2-2-5.1-2
	c-2-0.1-8.1-0.1-10.1,0c-1.9,0-3.8,0.7-5.1,2c-1.3,1.4-2,3.2-2,5.1c-0.1,2-0.1,8.1,0,10.1c0,1.9,0.7,3.8,2,5.1c1.4,1.3,3.2,2,5.1,2
	c2,0.1,8.1,0.1,10.1,0c1.9,0,3.8-0.7,5.1-2c1.3-1.4,2-3.2,2-5.1C25.8,16.5,25.8,10.4,25.7,8.4z M23.1,20.7c-0.4,1.1-1.3,1.9-2.3,2.3
	c-1.6,0.6-5.5,0.5-7.2,0.5S7.9,23.6,6.3,23c-1.1-0.4-1.9-1.3-2.3-2.3c-0.6-1.6-0.5-5.5-0.5-7.2S3.3,7.8,3.9,6.2
	c0.4-1.1,1.3-1.9,2.3-2.3c1.6-0.6,5.5-0.5,7.2-0.5s5.6-0.1,7.2,0.5c1.1,0.4,1.9,1.3,2.3,2.3c0.6,1.6,0.5,5.5,0.5,7.2
	S23.7,19.1,23.1,20.7L23.1,20.7z"/>
</svg>
