<?xml version="1.0" encoding="utf-8"?>
<!-- Generator: Adobe Illustrator 23.1.1, SVG Export Plug-In . SVG Version: 6.00 Build 0)  -->
<svg version="1.1" id="Calque_1" xmlns="http://www.w3.org/2000/svg" xmlns:xlink="http://www.w3.org/1999/xlink" x="0px" y="0px"
	 viewBox="0 0 30.7 30.9" style="enable-background:new 0 0 30.7 30.9;" xml:space="preserve">
<style type="text/css">
	.st0{fill:#109DAC;}
</style>
<path id="Icon_awesome-linkedin-in" class="st0" d="M8.3,27.2H3.1V10.4h5.2V27.2z M5.7,8.1c-1.7,0-3-1.3-3-3c0-1.7,1.3-3,3-3
	c1.7,0,3,1.3,3,3C8.8,6.7,7.4,8.1,5.7,8.1z M27.8,27.2h-5.2V19c0-1.9,0-4.4-2.7-4.4c-2.7,0-3.1,2.1-3.1,4.3v8.3h-5.2V10.4h5v2.3h0.1
	c1-1.7,2.9-2.8,4.9-2.7c5.3,0,6.2,3.5,6.2,8L27.8,27.2L27.8,27.2z"/>
</svg>
