<?xml version="1.0" encoding="utf-8"?>
<!-- Generator: Adobe Illustrator 23.1.1, SVG Export Plug-In . SVG Version: 6.00 Build 0)  -->
<svg version="1.1" id="Calque_1" xmlns="http://www.w3.org/2000/svg" xmlns:xlink="http://www.w3.org/1999/xlink" x="0px" y="0px"
	 viewBox="0 0 1262.7 58.2" style="enable-background:new 0 0 1262.7 58.2;" xml:space="preserve">
<style type="text/css">
	.st0{fill:#FFFFFF;}
</style>
<g id="Groupe_135" transform="translate(911.475 -1289.78)">
	<path id="Tracé_283" class="st0" d="M-836.1,1316.8c0-2.4,0-4.9,0-7.3c0-0.3,0.1-0.3,0.3-0.3c1.5,0,3,0,4.5,0
		c0.2,0,0.3,0.1,0.3,0.3c0,0.6,0,1.2,0,1.8c0,0.1,0,0.2,0,0.2c0.1,0,0.1-0.1,0.2-0.2c0.5-0.9,1.2-1.6,2.1-2.1c1-0.4,2-0.6,3.1-0.4
		c0.7,0.1,1.4,0.3,2,0.8c0.6,0.4,1,1,1.4,1.7c0,0.1,0,0.2,0.1,0.1c0.1,0,0.1-0.1,0.2-0.1c0.5-0.9,1.3-1.6,2.2-2
		c1-0.4,2.1-0.6,3.2-0.4c0.7,0.1,1.4,0.3,2.1,0.7c0.6,0.3,1,0.8,1.4,1.4c0.5,0.8,0.7,1.7,0.8,2.6c0.1,0.6,0.1,1.3,0.1,1.9
		c0,2.9,0,5.8,0,8.7c0,0.3-0.1,0.4-0.4,0.4c-1.6,0-3.1,0-4.7,0c-0.2,0-0.3-0.1-0.3-0.3c0-2.8,0-5.6,0-8.5c0-0.5-0.1-1-0.3-1.5
		c-0.3-0.8-1.3-1.3-2.2-0.9c-0.7,0.2-1.2,0.9-1.3,1.6c-0.1,0.4-0.1,0.8-0.1,1.2c0,2.7,0,5.3,0,8c0,0.3-0.1,0.4-0.4,0.4
		c-1.6,0-3.1,0-4.7,0c-0.2,0-0.3-0.1-0.3-0.3c0-2.9,0-5.8,0-8.7c0-0.6-0.1-1.1-0.4-1.6c-0.6-0.8-1.7-0.9-2.5-0.3
		c-0.1,0.1-0.2,0.2-0.3,0.4c-0.4,0.6-0.6,1.3-0.6,1.9c0,2.8,0,5.5,0,8.3c0,0.3-0.1,0.3-0.3,0.3c-1.6,0-3.3,0-4.9,0
		c-0.2,0-0.3-0.1-0.3-0.3C-836.1,1321.7-836.1,1319.3-836.1,1316.8z"/>
	<path id="Tracé_284" class="st0" d="M-870.8,1313.7c0,3.5,0,6.9,0,10.4c0,0.3-0.1,0.3-0.3,0.3c-1.6,0-3.3,0-4.9,0
		c-0.2,0-0.3-0.1-0.3-0.3c0-6.9,0-13.9,0-20.8c0-0.2,0.1-0.3,0.3-0.3c1.6,0,3.3,0,4.9,0c0.2,0,0.3,0.1,0.3,0.3
		C-870.8,1306.8-870.8,1310.3-870.8,1313.7z"/>
	<path id="Tracé_285" class="st0" d="M-777.4,1316.8c0-2.4,0-4.9,0-7.3c0-0.2,0-0.3,0.3-0.3c1.5,0,3,0,4.5,0c0.2,0,0.3,0,0.3,0.3
		c0,0.7,0,1.3,0,2c0,0.1-0.1,0.2,0.1,0.3s0.2-0.1,0.2-0.2c0.4-0.8,1-1.5,1.8-2.1c0.9-0.6,2-0.8,3.1-0.6c0.2,0,0.2,0.1,0.2,0.3
		c0,1.4,0,2.8,0,4.1c0,0.2,0,0.3-0.3,0.3c-1.3-0.3-2.6,0-3.7,0.8c-0.5,0.5-0.9,1.2-1,1.9c-0.1,0.6-0.2,1.2-0.2,1.8c0,2,0,3.9,0,5.9
		c0,0.2-0.1,0.3-0.3,0.3c-1.6,0-3.2,0-4.8,0c-0.2,0-0.3-0.1-0.3-0.3C-777.4,1321.7-777.4,1319.2-777.4,1316.8z"/>
	<path id="Tracé_286" class="st0" d="M-756.2,1309.1c-0.2,0-0.3,0.1-0.3,0.3c0,0.5,0,0.9,0,1.5c-0.1-0.1-0.1-0.1-0.2-0.2
		c-0.2-0.4-0.6-0.8-1-1c-1.2-0.9-2.8-1.2-4.3-0.8c-1.6,0.4-2.9,1.5-3.6,2.9c-0.9,1.7-1.3,3.7-1.1,5.6c0.1,1.2,0.4,2.5,1,3.5
		c0.5,0.9,1.3,1.6,2.2,2.2c1,0.5,2,0.8,3.1,0.7c1.3,0,2.5-0.6,3.3-1.6c0.1-0.1,0.1-0.2,0.2-0.1c0.1,0,0.1,0.2,0.1,0.3
		c0,0.6,0,1.1-0.1,1.7c-0.1,0.7-0.5,1.4-1.2,1.7c-0.6,0.2-1.2,0.3-1.9,0.1c-0.6-0.1-1.1-0.5-1.3-1.1c-0.1-0.2-0.2-0.1-0.3-0.1h-4.3
		c-0.6,0-0.6,0-0.5,0.6c0,0,0,0.1,0,0.1c0.3,1.1,0.9,2.1,1.8,2.8c0.9,0.7,2,1.2,3.1,1.3c0.4,0.1,0.8,0.1,1.1,0.2h2.4
		c0.2,0,0.5-0.1,0.7-0.1c2.7-0.2,4.9-2.1,5.6-4.7c0.1-0.5,0.2-1.1,0.2-1.6v-14.1C-752.9,1309.1-754.5,1309.1-756.2,1309.1z
		 M-757.1,1318.8c-0.6,1-1.9,1.2-2.9,0.5c-0.2-0.1-0.4-0.3-0.5-0.5c-0.4-0.6-0.6-1.3-0.7-2c-0.1-0.9,0-1.8,0.3-2.6
		c0.3-0.7,0.9-1.3,1.7-1.4c1.1-0.2,2.1,0.5,2.5,1.5c0.2,0.6,0.4,1.2,0.3,1.8C-756.3,1317.1-756.5,1318-757.1,1318.8z"/>
	<path id="Tracé_287" class="st0" d="M-878,1315.2c-0.5-0.9-1.3-1.7-2.3-2.1c-0.2-0.1-0.5-0.1-0.5-0.3c0-0.2,0.3-0.2,0.5-0.3
		c0.7-0.4,1.2-1,1.6-1.7c0.5-1.1,0.6-2.3,0.3-3.5c-0.2-1.1-0.7-2-1.6-2.7c-1.2-1-2.8-1.5-4.3-1.5c-3.6,0-7.2,0-10.7,0
		c-0.3,0-0.3,0.1-0.3,0.3c0,3.5,0,6.9,0,10.4c0,3.5,0,6.9,0,10.4c0,0.3,0.1,0.3,0.3,0.3c3.6-0.1,7.2,0.1,10.9-0.1
		c0.8,0,1.6-0.1,2.4-0.3c0.9-0.2,1.8-0.6,2.5-1.2c1.2-1,1.9-2.5,2-4.1C-877.1,1317.6-877.4,1316.3-878,1315.2z M-889.6,1311.1
		c0-1,0-2.1,0-3.1c0-0.2,0.1-0.3,0.3-0.3c0.6,0,1.2,0,1.8,0c0.5,0,1.1,0,1.6,0c0.7-0.1,1.4,0.3,1.8,1c0.4,0.7,0.2,1.6-0.3,2.2
		c-0.4,0.5-1,0.7-1.5,0.5c-0.1,0-0.2,0-0.3,0c-1,0-2.1,0-3.1,0C-889.5,1311.3-889.6,1311.3-889.6,1311.1L-889.6,1311.1z
		 M-883.8,1319.1c-0.4,0.3-0.8,0.5-1.3,0.5c-1.4,0.2-2.8,0-4.2,0.1c-0.2,0-0.2-0.1-0.2-0.2c0-1.3,0-2.6,0-3.9c0-0.2,0.1-0.2,0.2-0.2
		c0.7,0,1.4,0,2.1,0c0.7,0,1.4,0,2,0c1,0,1.8,0.7,1.9,1.6C-883,1317.8-883.2,1318.6-883.8,1319.1L-883.8,1319.1z"/>
	<path id="Tracé_288" class="st0" d="M-794.9,1314.3c-0.2-1.6-1-3.1-2.1-4.2c-0.9-0.9-2.2-1.4-3.5-1.4c-0.6,0-1.2,0-1.8,0.2
		c-1,0.2-1.8,0.7-2.5,1.5c-0.1,0.1-0.2,0.2-0.3,0.3c-0.1,0.1-0.2,0-0.2-0.1c0-0.1,0-0.2,0-0.3c0-2.3,0-4.7,0-7
		c0-0.2-0.1-0.3-0.3-0.3c-1.6,0-3.1,0-4.7,0c-0.3,0-0.3,0.1-0.3,0.3c0,3.2,0,6.4,0,9.5c0,3.8,0,7.5,0,11.3c0,0.2-0.1,0.3,0.2,0.3
		c1.5,0,3.1,0,4.7,0c0.2,0,0.2,0,0.2-0.2c0-0.6,0-1.2,0-1.9c0.1,0.2,0.2,0.3,0.3,0.4c0.6,0.9,1.5,1.6,2.5,1.9c1,0.3,2,0.3,2.9,0.1
		c1.7-0.3,3.2-1.4,4-3c0.7-1.5,1.1-3.1,1.1-4.7C-794.6,1316.2-794.7,1315.2-794.9,1314.3z M-800.7,1319.3c-0.4,1.1-1.7,1.7-2.8,1.3
		c-0.2-0.1-0.4-0.2-0.6-0.3c-0.6-0.6-1.1-1.3-1.2-2.2c-0.1-0.6-0.2-1.3-0.1-2c0-1.1,0.4-2.2,1.2-3c0.9-0.8,2.3-0.7,3.1,0.2
		c0,0,0,0.1,0.1,0.1c0.4,0.6,0.7,1.4,0.8,2.1c0.1,0.4,0,0.8,0,1C-800.1,1317.5-800.3,1318.4-800.7,1319.3L-800.7,1319.3z"/>
	<path id="Tracé_289" class="st0" d="M-788.3,1318.2c3.2,0,6.4,0,9.7,0c0.2,0,0.3-0.1,0.3-0.3c0-0.4,0-0.9-0.1-1.3
		c-0.1-1-0.3-2-0.6-2.9c-0.9-2.9-3.6-4.9-6.7-5c-0.8,0-1.6,0-2.3,0.2c-1.7,0.3-3.2,1.3-4.3,2.6c-1,1.4-1.6,3.1-1.7,4.9
		c0,0.9,0,1.8,0.3,2.6c0.5,2.2,1.9,4.1,3.9,5.1c0.9,0.5,2,0.7,3,0.8c1.2,0.1,2.5,0,3.7-0.4c1.1-0.3,2-0.9,2.8-1.6
		c0.9-0.9,1.5-2,1.7-3.2c-1.6,0-3.1,0-4.7,0c-0.4,0-0.6,0.1-0.7,0.4c-0.1,0.1-0.2,0.3-0.3,0.4c-0.9,0.7-2.1,0.8-3,0.3
		c-0.7-0.5-1.2-1.3-1.3-2.2C-788.7,1318.2-788.6,1318.2-788.3,1318.2z M-788.6,1314.8c0.1-0.6,0.3-1.1,0.6-1.6
		c0.3-0.4,0.8-0.7,1.3-0.8c0.6-0.1,1.3,0,1.8,0.4c0.6,0.4,1,1.1,1,1.8c0.1,0.6,0.1,0.6-0.6,0.6h-3.9
		C-788.5,1315.2-788.7,1315.3-788.6,1314.8L-788.6,1314.8z"/>
	<path id="Tracé_290" class="st0" d="M-854,1314.6c-0.4-1.7-1.3-3.2-2.7-4.3c-1.3-1-2.8-1.5-4.4-1.6c-0.6,0-1.1,0-1.7,0
		c-1,0.1-2,0.4-2.9,0.8c-1.4,0.7-2.5,1.8-3.1,3.1c-0.6,1.3-0.9,2.7-0.9,4.2c0,0.5,0,1,0.1,1.5c0.2,1.1,0.6,2.1,1.1,3.1
		c0.7,1.1,1.6,2,2.8,2.6c1.6,0.8,3.3,1,5,0.8c1.1-0.1,2.1-0.4,3.1-0.9c0.9-0.5,1.8-1.2,2.4-2.1c0.9-1.4,1.4-3,1.4-4.7
		C-853.7,1316.3-853.8,1315.4-854,1314.6z M-859.8,1319.7c-0.3,0.9-1.1,1.5-2.1,1.5c-0.8,0-1.6-0.5-1.8-1.3
		c-0.3-0.8-0.5-1.6-0.5-2.4c-0.1-1.1,0-2.2,0.3-3.2c0.1-0.9,0.8-1.6,1.7-1.8c0.7-0.2,1.4,0.1,1.9,0.6c0.5,0.7,0.9,1.5,0.9,2.4
		c0,0.4,0.1,0.9,0.1,1.3C-859.2,1317.8-859.4,1318.8-859.8,1319.7L-859.8,1319.7z"/>
	<path id="Tracé_291" class="st0" d="M-837.3,1316.6c0-1.2-0.2-2.3-0.7-3.4c-0.6-1.5-1.7-2.8-3.2-3.5c-1.6-0.8-3.3-1.1-5.1-0.9
		c-1.1,0.1-2.2,0.4-3.2,1c-1.1,0.6-2.1,1.6-2.7,2.8c-0.8,1.6-1.1,3.3-1,5.1c0.1,1,0.3,1.9,0.7,2.8c0.6,1.5,1.7,2.7,3.1,3.5
		c1.3,0.7,2.8,1.1,4.3,1c0.7,0,1.4,0,2-0.2c2.5-0.5,4.5-2.3,5.3-4.7C-837.4,1318.9-837.2,1317.8-837.3,1316.6z M-842.7,1317.4
		c0,0.8-0.2,1.6-0.5,2.3c-0.3,0.9-1.2,1.6-2.1,1.6c-0.7,0-1.4-0.4-1.7-1.1c-0.4-0.7-0.6-1.5-0.6-2.2c0-0.4,0-0.8,0-1
		c-0.1-1,0.1-2,0.5-3c0.3-1.1,1.5-1.7,2.6-1.4c0.2,0.1,0.4,0.1,0.6,0.3c0.4,0.3,0.7,0.7,0.9,1.2
		C-842.8,1315.1-842.6,1316.2-842.7,1317.4z"/>
</g>
<g id="Groupe_136" transform="translate(329.51 -2336.094)">
	<path id="Tracé_292" class="st0" d="M167.4,2363.4c0,3,0,6,0,8.9c0,0.8-0.2,1.2-1.1,1.1c-3.7-0.1-7.4,0-11.1,0
		c-0.8,0-1.1-0.2-1.1-1c0-6.1,0-12.2,0-18.3c0-0.9,0.3-1,1.1-1c3.6,0,7.3,0,10.9,0c0.9,0,1.2,0.2,1.2,1.2
		C167.4,2357.3,167.4,2360.4,167.4,2363.4z"/>
	<path id="Tracé_293" class="st0" d="M333.2,2357.6c0,4.7,0,9,0,13.4c0,0.5,0.1,0.8,0.7,0.7c0.7-0.1,0.6,0.4,0.6,0.8
		c0,0.5-0.3,0.6-0.7,0.6c-1,0-2,0-3.1,0c-0.5,0-0.7-0.1-0.7-0.6c0-0.5,0-0.9,0.7-0.8c0.7,0.1,0.8-0.3,0.8-0.8c0-5.1,0-10.3,0-15.4
		c0-0.6-0.1-0.9-0.8-0.8c-0.7,0.1-0.6-0.4-0.6-0.9c0-0.6,0.4-0.5,0.8-0.5c0.9,0,1.8,0.1,2.6,0c0.7-0.1,1.4,0.3,1.7,1
		c2.1,3.7,4.3,7.4,6.5,11.1c0.2,0.4,0.4,0.7,0.9,1.4c0-4.1,0-7.8,0-11.4c0-0.7-0.3-0.7-0.8-0.6c-0.6,0-0.6-0.3-0.6-0.8
		c0-0.5,0.2-0.6,0.7-0.6c1,0,1.9,0,2.9,0c0.4,0,0.8-0.1,0.8,0.5c0,0.4,0.1,0.9-0.6,0.9c-1-0.1-0.8,0.6-0.8,1.2c0,5.3,0,10.7,0,16
		c0,0.4,0.4,1.2-0.4,1.3c-0.7,0.3-1.6,0-1.9-0.7c-2.6-4.7-5.4-9.3-8.1-14C333.7,2358.2,333.6,2358.1,333.2,2357.6z"/>
	<path id="Tracé_294" class="st0" d="M193.8,2363.3c-0.1-2.5,0.4-4.9,1.5-7.1c2.2-4,9.1-4.1,12.1-1.6c0.5,1.1,0.8,2.3,0.7,3.6
		c-0.2,0.3-0.6,0.2-0.9,0.2c-0.4,0-0.6-0.1-0.7-0.5c-0.9-2.7-1.8-3.4-4.3-3.4c-2.1,0-3.4,1.1-4.1,3.6c-1.2,3.7-1.1,7.8,0.3,11.5
		c0.6,2.1,2.8,3.3,4.9,2.7c0.4-0.1,0.8-0.3,1.2-0.6c0.6-0.3,0.9-0.9,0.9-1.5c-0.1-0.8,0-1.6,0-2.5c0-1,0.4-2.3-1.5-1.9
		c-0.6,0.1-0.5-0.5-0.5-0.8c0-0.4,0.1-0.6,0.6-0.6c1.8,0,3.6,0,5.4,0c0.4,0,0.6,0.1,0.6,0.6c0,0.3,0,0.8-0.5,0.7
		c-0.9,0-0.8,0.6-0.8,1.2c0,0.3,0,0.7,0,1c0,3.5-1.8,5.4-5.3,5.8c-5.5,0.6-8.9-2.2-9.3-7.6C193.9,2365,193.9,2364.1,193.8,2363.3z"
		/>
	<path id="Tracé_295" class="st0" d="M307.4,2361.1c0-1.8,0-3.6,0-5.3c0-0.6,0.1-1.2-0.8-1.1c-0.6,0.1-0.5-0.4-0.5-0.8
		c0-0.5,0.2-0.6,0.6-0.6c1.1,0,2.1,0,3.2,0c0.5,0,0.7,0.1,0.7,0.6c0,0.4,0.1,0.8-0.6,0.8c-0.9-0.1-0.9,0.5-0.9,1.1
		c0,3.4,0,6.8,0,10.3c0,0.9-0.1,1.7-0.3,2.6c-0.5,3.1-3.3,5.2-6.4,4.9c-3.5-0.1-5.8-1.8-6.4-5.1c-0.2-1-0.3-2-0.3-3
		c0-3.2,0-6.4,0-9.7c0-0.6,0.1-1.2-0.9-1c-0.7,0.1-0.6-0.4-0.6-0.9c0-0.6,0.4-0.5,0.8-0.5c1.6,0,3.1,0,4.7,0c0.4,0,0.8-0.1,0.8,0.5
		c0,0.4,0.1,1-0.6,0.9c-0.7-0.1-0.7,0.4-0.7,0.9c0,3.9,0,7.9,0.1,11.8c0,0.8,0.2,1.5,0.4,2.3c0.4,1.4,1.7,2.4,3.1,2.4
		c1.4,0.2,2.9-0.5,3.6-1.7c0.6-1.1,1-2.4,1-3.7C307.3,2364.7,307.3,2362.9,307.4,2361.1L307.4,2361.1z"/>
	<path id="Tracé_296" class="st0" d="M227,2363.2c0,2.5,0,5,0,7.5c0,0.6-0.1,1.2,0.9,1c0.6-0.1,0.5,0.4,0.6,0.8
		c0,0.5-0.2,0.7-0.7,0.7c-1.7,0-3.3,0-5,0c-0.4,0-0.7-0.1-0.7-0.6c0-0.5,0-0.9,0.7-0.8c0.9,0.1,0.8-0.4,0.8-1c0-5.1,0-10.1,0-15.1
		c0-0.9-0.3-1-1.1-1c-1.5,0.1-3.1-0.4-3.4,1.8c-0.1,0.6-0.7,0.4-1.1,0.3c-0.5-0.1-0.3-0.5-0.3-0.8c0.2-2.8,0.2-2.8,2.9-2.8
		c3.6,0,7.1,0,10.7,0c1.1,0,1.6,0.2,1.6,1.3c0,0.5,0.1,1,0.2,1.4c0,0.3,0.3,0.8-0.4,0.8c-0.4,0-0.9,0.1-1.1-0.5
		c-0.2-0.7-0.3-1.5-1.1-1.6c-1-0.1-2-0.2-3-0.1c-0.6,0-0.4,0.6-0.4,0.9C227,2358.1,227,2360.7,227,2363.2z"/>
	<path id="Tracé_297" class="st0" d="M256,2373.2c-2,0-4.1,0-6.1,0c-0.4,0-0.9,0.2-0.9-0.6c0-0.5,0-1,0.7-0.9
		c0.6,0.1,0.7-0.3,0.7-0.8c0-5.2,0-10.4,0-15.6c0-0.5-0.1-0.8-0.7-0.8s-0.7-0.3-0.7-0.8c0-0.7,0.5-0.6,0.9-0.6c1.5,0,3,0,4.5,0
		c0.4,0,0.8-0.1,0.8,0.5c0,0.4,0.1,1-0.6,0.9c-0.8-0.1-0.7,0.4-0.7,0.9c0,5.1,0,10.2,0,15.3c0,0.8,0.3,0.9,1,0.9c1.7,0,3.3-0.1,5,0
		c1.1,0,1.8-0.3,2-1.4c0-0.5,0.4-0.9,0.9-0.9c0.1,0,0.2,0,0.3,0.1c0.8,0.2,0.3,0.8,0.2,1.2c-0.4,2.4-0.4,2.4-2.8,2.4L256,2373.2z"/>
	<path id="Tracé_298" class="st0" d="M370.7,2373.2c-1.9,0-3.9,0-5.8,0c-0.4,0-1,0.3-1.1-0.5c-0.1-0.7,0.1-1,0.9-0.9
		c0.6,0.1,0.6-0.3,0.6-0.7c0-5.2,0-10.4,0-15.6c0-0.6-0.2-0.8-0.8-0.8c-0.6,0.1-0.6-0.3-0.6-0.8c0-0.6,0.2-0.6,0.7-0.6
		c1.6,0,3.2,0,4.8,0c0.5,0,0.7,0.1,0.7,0.6c0,0.4,0,0.8-0.6,0.8c-0.8-0.1-0.7,0.4-0.7,0.9c0,5.1,0,10.2,0,15.3c0,0.8,0.2,1,1,0.9
		c1.7,0,3.4-0.1,5.1,0c0.9,0.2,1.7-0.4,1.9-1.3c0,0,0-0.1,0-0.1c0-0.5,0.4-0.9,0.9-0.9c0.1,0,0.2,0,0.3,0.1c0.8,0.2,0.3,0.8,0.3,1.2
		c-0.4,2.4-0.4,2.4-2.8,2.4L370.7,2373.2z"/>
	<path id="Tracé_299" class="st0" d="M272.2,2364.8c0-3.5,0-6.4,0-9.2c0-0.6,0.1-1.1-0.8-1c-0.7,0.1-0.7-0.3-0.7-0.8
		c0-0.7,0.5-0.6,0.9-0.6c1.5,0,3,0,4.5,0c0.4,0,1-0.3,1,0.6c0,0.6-0.2,0.9-0.8,0.8c-1-0.1-0.6,0.7-0.6,1.1c0,5.1,0,10.2,0,15.3
		c0,1.3-0.2,2.7-0.6,4c-0.6,1.9-2.2,3.3-4.2,3.6c-0.6,0.1-1,0-1.3-0.6c-0.3-0.7,0.3-0.6,0.7-0.8c1-0.7,1.5-1.8,1.6-3
		C272.5,2370.9,272,2367.5,272.2,2364.8z"/>
	<path id="Tracé_300" class="st0" d="M189.7,2353.2c0.8,0,1.7,0,2.5,0c0.4,0,0.9-0.2,0.9,0.5c0,0.6-0.1,1-0.8,0.9
		c-0.8-0.1-0.9,0.3-0.9,0.9c0,5.1,0,10.2,0,15.3c0,0.7,0.2,1,0.9,0.9c0.6-0.1,0.8,0.1,0.8,0.7c0,0.5-0.1,0.8-0.7,0.7
		c-1.8,0-3.6,0-5.4,0c-0.6,0-0.8-0.1-0.8-0.7c0-0.6,0.2-0.8,0.8-0.7c1.1,0.2,1-0.5,1-1.2c0-4.9,0-9.8,0-14.7c0-0.8,0-1.4-1-1.2
		c-0.6,0.1-0.7-0.3-0.7-0.8c0-0.7,0.4-0.6,0.9-0.6C188,2353.2,188.8,2353.2,189.7,2353.2z"/>
	<path id="Tracé_301" class="st0" d="M213.4,2353.2c0.9,0,1.8,0,2.6,0c0.5,0,0.8,0,0.8,0.7c0,0.6-0.2,0.8-0.8,0.7
		c-0.9-0.1-0.9,0.4-0.9,1.1c0,5,0,10,0,15c0,0.6,0,1.2,0.9,1c0.7-0.1,0.8,0.3,0.8,0.8c0,0.7-0.4,0.6-0.8,0.6c-1.7,0-3.5,0-5.2,0
		c-0.5,0-0.8-0.1-0.8-0.7c0-0.5,0.1-0.9,0.7-0.8c1,0.2,1.1-0.4,1.1-1.2c0-4.9,0-9.7,0-14.6c0-0.8,0.1-1.6-1.2-1.4
		c-0.6,0.1-0.6-0.3-0.6-0.7c0-0.5,0.2-0.7,0.7-0.6C211.5,2353.3,212.4,2353.2,213.4,2353.2z"/>
	<path id="Tracé_302" class="st0" d="M328.5,2371.7c-0.5,0.1-1-0.1-1.3-0.4c-1.7-2-3.2-4.2-4.3-6.7c-0.2-0.6-0.2-0.9,0.5-1.2
		c2.9-1.5,4-3.5,3.5-6.1c-0.5-2.4-3-4-6-4.1c-1.2,0-2.4,0-3.6,0c-1.4,0-2.8,0-4.2,0c-0.4,0-0.9-0.3-1,0.5c0,0.5,0,1,0.7,0.9
		c0.7-0.1,0.7,0.3,0.7,0.8c0,5.2,0,10.4,0,15.6c0,0.5,0,0.9-0.7,0.8c-0.6-0.1-0.7,0.2-0.8,0.7c0,0.7,0.4,0.7,0.8,0.7
		c1.6,0,3.2,0,4.8,0c0.5,0,0.8-0.1,0.8-0.7c0-0.5-0.1-0.8-0.7-0.7c-0.5,0.1-0.8-0.1-0.8-0.7c0-2.2,0-4.3,0-6.5c0-0.2,0-0.5,0.2-0.6
		c0.9-0.3,1.9,0.1,2.4,0.8c1.2,2.7,2.7,5.2,4.4,7.6c0.3,0.4,0.5,0.9,1.2,0.8c1.1-0.1,2.1,0,3.2,0c0.4,0,0.7-0.1,0.7-0.6
		C329.1,2372.1,329.2,2371.7,328.5,2371.7z M319.7,2362.5c-2.7-0.2-2.7,0-2.7-2.8v-1.2c0-1,0.1-2,0-3c-0.1-0.8,0.3-1,1-0.9
		c0.6,0.1,1.3,0,1.9,0c2-0.1,3.7,1.5,3.7,3.5c0,0.1,0,0.3,0,0.4C323.5,2360.4,322,2362.7,319.7,2362.5L319.7,2362.5z"/>
	<path id="Tracé_303" class="st0" d="M185,2358.4c-0.6-3-3.2-5.1-6.2-5.1c-2.7-0.1-5.4,0-8.2,0c-0.4,0-0.8-0.1-0.8,0.5
		c0,0.4-0.1,1,0.6,0.9c1-0.1,0.8,0.5,0.8,1.1c0,2.5,0,5,0,7.5c0,2.5,0,5.1,0,7.6c0,0.5,0.1,1-0.7,0.9c-0.6-0.1-0.7,0.2-0.7,0.8
		c0,0.6,0.3,0.7,0.8,0.7c2.7,0,5.4,0.1,8.2-0.1c3.4-0.2,5.4-1.9,6.3-5.2C185.8,2364.8,185.8,2361.5,185,2358.4z M181.7,2367.8
		c-0.8,3.3-3.1,4.7-6.4,4c-0.7-0.1-0.5-0.6-0.5-0.9c0-2.6,0-5.2,0-7.8c0-2.5,0-4.9,0-7.4c0-0.9,0.3-1.1,1.1-1.1c4,0,5.4,1,6.1,5
		C182.4,2362.3,182.3,2365.1,181.7,2367.8L181.7,2367.8z"/>
	<path id="Tracé_304" class="st0" d="M292.9,2357.7c-0.9-3-3.7-5-6.8-4.8c-3.6-0.1-6,1.4-7.1,4.6c-1.3,3.8-1.3,8,0.1,11.7
		c1.1,2.9,3.5,4.3,6.9,4.3s5.7-1.5,6.8-4.4c0.7-1.9,1-3.9,0.9-5.9C293.7,2361.4,293.5,2359.5,292.9,2357.7z M289.4,2369.1
		c-0.7,2-1.9,3-3.6,3c-1.6,0-2.9-1-3.4-3c-1.1-3.8-1.1-7.9,0-11.8c0.6-2,1.8-2.9,3.5-3c1.7,0,2.9,0.9,3.6,3c0.2,0.7,0.4,1.4,0.5,2.1
		c0.2,1.4,0.3,2.8,0.2,4.1C290.2,2365.4,290,2367.3,289.4,2369.1L289.4,2369.1z"/>
	<path id="Tracé_305" class="st0" d="M247.7,2372.6c0-0.4,0-0.9-0.5-0.8c-1.1,0.2-1.2-0.6-1.4-1.3c-1.8-5.4-3.5-10.9-5.3-16.3
		c-0.2-0.6-0.3-1-1.1-1s-0.9,0.4-1.1,1c-1.7,5.4-3.4,10.8-5.1,16.2c-0.2,0.7-0.3,1.5-1.4,1.4c-0.6-0.1-0.4,0.5-0.5,0.8
		c0,0.5,0.3,0.5,0.6,0.5c1,0,1.9,0,2.9,0c0.3,0,0.6,0.1,0.6-0.3c0-0.4,0.2-0.9-0.3-1c-1-0.1-0.6-0.6-0.5-1.1
		c0.3-1.2,0.7-2.3,1.1-3.4c0.1-0.4,0.2-0.8,0.8-0.8c1.4,0.1,3-0.3,4.2,0.2c0.9,0.4,0.8,2,1.2,3.1c0.1,0.4,0.3,0.8,0.4,1.2
		c0.1,0.4,0.3,0.7-0.4,0.8c-0.7,0.1-0.4,0.7-0.4,1c0,0.5,0.5,0.3,0.8,0.3c0.7,0,1.5,0,2.2,0c0.8,0,1.7,0,2.5,0
		C247.5,2373.2,247.7,2373.1,247.7,2372.6z M240.2,2365.1c-3.8,0.3-3.8,0.3-2.7-3.2c0.2-0.9,0.5-1.8,1-2.6l1.9,5.7
		C240.4,2365,240.3,2365.1,240.2,2365.1L240.2,2365.1z"/>
	<path id="Tracé_306" class="st0" d="M362.8,2372.6c0-0.4,0-0.9-0.5-0.8c-1.1,0.2-1.2-0.6-1.4-1.3c-1.8-5.4-3.5-10.9-5.3-16.3
		c-0.2-0.6-0.3-1-1.1-1s-0.9,0.5-1.1,1c-1.7,5.4-3.4,10.9-5.2,16.3c-0.2,0.6-0.2,1.4-1.2,1.2c-0.6-0.1-0.6,0.3-0.6,0.7
		c0,0.5,0.2,0.7,0.7,0.7c1,0,1.9,0,2.9,0c0.3,0,0.6,0.1,0.6-0.4c0-0.4,0.2-0.9-0.3-1c-1-0.1-0.6-0.6-0.4-1.1
		c0.3-1.2,0.7-2.3,1.1-3.4c0.1-0.4,0.2-0.8,0.8-0.8c1.4,0.1,3-0.3,4.2,0.2c0.9,0.4,0.8,2,1.2,3.1c0.1,0.4,0.3,0.8,0.4,1.2
		c0.1,0.4,0.3,0.7-0.4,0.8c-0.7,0.1-0.4,0.7-0.4,1c0,0.5,0.5,0.3,0.8,0.3c0.7,0,1.5,0,2.2,0c0.8,0,1.7,0,2.5,0
		C362.5,2373.2,362.8,2373.1,362.8,2372.6z M352.6,2361.8c0.3-0.8,0.5-1.6,0.9-2.8l2,6C351.5,2365.4,351.5,2365.4,352.6,2361.8
		L352.6,2361.8z"/>
</g>
<g id="Groupe_137" transform="translate(1466.869 -2259.965)">
	<path id="Tracé_307" class="st0" d="M-668.4,2281.3l-0.3,1.5h0c-0.4-0.9-1.5-2.1-4-2.1c-4.5,0.2-8.2,3.5-8.9,7.9
		c-0.8,4.2,1.3,8,6,8c1.8,0.1,3.6-0.7,4.7-2.1h0l-0.3,1.6h4.4l2.7-14.9L-668.4,2281.3L-668.4,2281.3z M-669.8,2288.6
		c-0.4,2.2-2.2,3.8-4.4,3.8c-1.7,0-3-1.3-3.1-2.9c0-0.3,0-0.6,0.1-0.8c0.4-2.2,2.2-3.8,4.4-3.8c1.6-0.1,3,1.2,3.1,2.8
		C-669.7,2288-669.8,2288.3-669.8,2288.6"/>
	<path id="Tracé_308" class="st0" d="M-661.6,2281.3h4.1l-0.3,1.5h0c0.9-1.4,2.5-2.2,4.1-2.1l-0.8,4.5c-2.1,0.1-3.6,0.4-4,2.7
		l-1.5,8.2h-4.5L-661.6,2281.3z"/>
	<path id="Tracé_309" class="st0" d="M-650.5,2275.4h4.5l-2.1,11.2h0.1l5.1-5.4h5.2l-6.8,6.5l3.9,8.3h-5l-2.9-7.2h0l-1.3,7.2h-4.4
		L-650.5,2275.4z"/>
	<path id="Tracé_310" class="st0" d="M-630.5,2280.7c-4.5,0-8.5,3.9-9.3,8c-0.8,3.4,1.3,6.9,4.7,7.7c0.6,0.1,1.1,0.2,1.7,0.2
		c1.6,0,3.2-0.5,4.5-1.3c1.5-1,2.8-2.3,3.7-3.8h-4.5c-0.7,0.9-1.8,1.4-3,1.4c-1.5,0.2-2.8-0.9-2.9-2.4c0-0.1,0-0.3,0-0.4h11.1
		c0.1-0.4,0.2-0.8,0.3-1.1C-623.3,2284.4-626,2280.7-630.5,2280.7 M-635,2287.1c0.7-1.6,2.2-2.6,3.9-2.5c1.4-0.2,2.7,0.9,2.9,2.3
		c0,0.1,0,0.2,0,0.3H-635z"/>
	<path id="Tracé_311" class="st0" d="M-687.6,2275.4l-7.9,11.8h0v-11.8h-3.8l-13.9,20.7h5.4l7.8-11.8h0v11.8h3.8l7.8-11.8h0.1v11.8
		h4.4v-20.7H-687.6z"/>
	<path id="Tracé_312" class="st0" d="M-612.9,2281.3h-2.8l0.8-4.4h-3.9l-0.3,1.7c-0.3,1.9-1.5,2.5-3.2,2.7h0l-0.7,3.3h2.2
		l-2.1,11.5h4.4l2.1-11.5h2.8L-612.9,2281.3z"/>
	<path id="Tracé_313" class="st0" d="M-544,2290.5c-1.5,3.6-5,6-8.9,6.1c-4.5,0-7.3-3.5-6.5-8c0.9-4.5,4.7-7.8,9.3-7.9
		c3.9,0,6.6,2.6,6.7,6.3h-4.5c-0.3-1.3-1.5-2.2-2.8-2.1c-2.1,0-3.9,1.6-4.2,3.7c-0.4,2.1,0.7,3.8,2.8,3.8c1.5,0,2.8-0.8,3.6-2
		L-544,2290.5L-544,2290.5z M-580.9,2270.1l-8.6,5.3h2.4l-7.8,11.8h-0.1v-11.8h-3.8l-7.8,11.8h0v-11.8h-4.5v20.7h3.9l7.8-11.8h0
		v11.8h3.8l13.9-20.7h2.2L-580.9,2270.1z M-572.5,2296.1h-4.4l0.3-1.6h0c-1.2,1.4-2.9,2.2-4.7,2.1c-4.7,0-6.8-3.7-6-8
		c0.7-4.4,4.5-7.7,8.9-7.9c2.4,0,3.6,1.2,4,2.1h0l0.3-1.5h4.4L-572.5,2296.1z M-579.9,2292.5c2.2-0.1,4-1.7,4.4-3.8
		c0.3-1.8-0.5-3.7-3-3.7c-2.2,0.1-4,1.7-4.4,3.8c-0.4,1.6,0.5,3.2,2.1,3.6C-580.6,2292.5-580.2,2292.5-579.9,2292.5 M-558.5,2281.3
		h-2.8l0.8-4.4h-3.9l-0.3,1.7c-0.3,1.9-1.5,2.5-3.2,2.7h0l-0.6,3.3h2.2l-2.1,11.5h4.4l2.1-11.5h2.8L-558.5,2281.3z M-539.8,2275.4
		h4.4l-1.3,7.4h0.1c0.9-1.4,2.5-2.2,4.2-2.1c1.4-0.1,2.8,0.5,3.7,1.6c0.9,1.4,0.8,2.7,0.3,5.4l-1.5,8.3h-4.4l1.5-8.1
		c0.1-0.7,0.5-3.1-1.8-3.1c-2.5,0-2.9,2.2-3,3l-1.5,8.2h-4.4L-539.8,2275.4z"/>
</g>
<g id="Groupe_138" transform="translate(-2419.432 -1144.437)">
	<path id="Tracé_314" class="st0" d="M3497.8,1153.5l-5.8,14h6.5l5.9-14H3497.8z M3490,1172.5c0,1.9,1.5,3.5,3.4,3.5h0.1
		c2,0,3.7-1.7,3.7-3.7c0-1.9-1.5-3.5-3.4-3.5h-0.1C3491.7,1168.8,3490,1170.4,3490,1172.5L3490,1172.5z M3484.2,1168
		c0-1.7-1.4-3.1-3.1-3.1c-1.7,0-3.1,1.4-3.1,3.1c0,1.7,1.4,3.1,3.1,3.1c0,0,0,0,0,0C3482.8,1171.1,3484.2,1169.7,3484.2,1168
		 M3466.8,1168c0-1.7-1.4-3.1-3.1-3.1c-1.7,0-3.1,1.4-3.1,3.1c0,1.7,1.4,3.1,3.1,3.1c0,0,0,0,0,0
		C3465.4,1171.1,3466.8,1169.7,3466.8,1168 M3429.4,1171.2c-1.8,0-3.2-1.4-3.2-3.2s1.4-3.2,3.2-3.2c1.8,0,3.2,1.4,3.2,3.2
		C3432.6,1169.8,3431.2,1171.2,3429.4,1171.2L3429.4,1171.2 M3403.3,1160.3l6.6,15.6l-2.4,5.6h5.8l8.8-21.2h-5.8l-3.6,9.1l-3.5-9.1
		H3403.3z M3471.9,1168c0,4.6-3.7,8.3-8.3,8.3c-4.6,0-8.3-3.7-8.3-8.3s3.7-8.3,8.3-8.3C3468.2,1159.8,3471.9,1163.5,3471.9,1168
		C3471.9,1168,3471.9,1168,3471.9,1168 M3489.4,1168c0,4.6-3.7,8.3-8.3,8.3c-4.6,0-8.3-3.7-8.3-8.3s3.7-8.3,8.3-8.3
		C3485.7,1159.8,3489.4,1163.5,3489.4,1168C3489.4,1168,3489.4,1168,3489.4,1168 M3439.5,1153.5v22.3h5.4v-8.2c0-1.6,0.8-2.6,2-2.6
		s1.9,0.8,1.9,2.4v8.4h5.4v-9.7c0-3.7-2-6.1-5.3-6.1c-1.6-0.1-3.1,0.6-4.1,1.9v-8.3L3439.5,1153.5z M3432.4,1160.3v1.4
		c-1-1.2-2.6-1.9-4.2-1.8c-4.2,0-7.4,3.7-7.4,8.1s3.1,8.1,7.4,8.1c1.6,0.1,3.1-0.6,4.2-1.8v1.4h5.3v-15.4L3432.4,1160.3z"/>
	<path id="Tracé_315" class="st0" d="M3485.9,1190.5c-0.3-0.1-0.5-0.1-0.8-0.2c-1.7-0.4-3-1.8-3.3-3.6c-0.2-1.1,0-2.3,0.6-3.3
		c0.7-1.2,1.9-1.9,3.2-2.1c0.9-0.2,1.9-0.1,2.7,0.3c0.1,0,0.2,0.2,0.2,0.3c0,0.8,0,1.7,0,2.5c0,0.2,0,0.2-0.2,0.1
		c-0.6-0.4-1.4-0.5-2.1-0.3c-0.9,0.2-1.5,1.2-1.2,2.1c0.2,0.6,0.7,1.1,1.3,1.2c0.7,0.2,1.3,0.1,1.9-0.3c0.1,0,0.1-0.1,0.2-0.1
		c0.1,0,0,0.1,0,0.2c0,0.8,0,1.7,0,2.5c0,0.1-0.1,0.2-0.2,0.2c-0.4,0.2-0.9,0.3-1.4,0.4c0,0-0.1,0-0.1,0L3485.9,1190.5z"/>
	<path id="Tracé_316" class="st0" d="M3454.9,1182.4c0.4-0.6,1.1-1,1.8-1.1c1.6-0.4,3.1,0.6,3.5,2.2c0,0.2,0.1,0.3,0.1,0.5
		c0,0.3,0.1,0.6,0.1,0.9c0,1.7,0,3.4,0,5.2c0,0.2-0.1,0.2-0.2,0.2c-0.9,0-1.8,0-2.8,0c-0.2,0-0.2-0.1-0.2-0.2c0-1.5,0-3,0-4.5
		c0-0.2,0-0.5-0.1-0.7c-0.1-0.4-0.5-0.7-0.9-0.7c-0.4,0-0.8,0.2-1,0.6c-0.1,0.3-0.2,0.5-0.2,0.8c0,1.5,0,3,0,4.5
		c0,0.2,0,0.2-0.2,0.2c-0.9,0-1.9,0-2.8,0c-0.2,0-0.2-0.1-0.2-0.2c0-2.8,0-5.6,0-8.3c0-0.2,0-0.2,0.2-0.2c0.9,0,1.9,0,2.8,0
		c0.2,0,0.2,0.1,0.2,0.2C3454.9,1181.9,3454.9,1182.2,3454.9,1182.4z"/>
	<path id="Tracé_317" class="st0" d="M3480.8,1190.2c-1,0-2,0-2.9,0c-0.1,0-0.1-0.1-0.1-0.2c0-0.4,0-0.7,0-1.1c0-1.2,0-2.3,0-3.5
		c0-0.3,0-0.5-0.1-0.8c-0.1-0.4-0.5-0.6-0.9-0.6c-0.4,0-0.8,0.2-1,0.5c-0.2,0.4-0.2,0.8-0.2,1.2c0,1.4,0,2.8,0,4.1
		c0,0.2-0.1,0.2-0.3,0.2c-0.9,0-1.8,0-2.8,0c-0.2,0-0.2,0-0.2-0.2c0-2.8,0-5.6,0-8.4c0-0.2,0.1-0.2,0.2-0.2c0.9,0,1.9,0,2.8,0
		c0.1,0,0.2,0,0.2,0.2c0,0.2,0,0.5,0,0.7c0.2-0.2,0.4-0.4,0.6-0.6c1.3-1,3.2-0.7,4.2,0.7c0.2,0.3,0.4,0.7,0.5,1.1c0,0,0,0.1,0,0.1
		c0.1,0.4,0.1,0.9,0.1,1.3c0,1.7,0,3.3,0,5C3480.9,1190.1,3480.9,1190.2,3480.8,1190.2z"/>
	<path id="Tracé_318" class="st0" d="M3446.2,1180.2c-0.3-0.2-0.7-0.2-1.1-0.2c-0.7,0-1.2,0.6-1.2,1.2c0,0.1,0,0.1,0,0.2
		c0,0.1,0.1,0.1,0.2,0.1c0.6,0,1.2,0,1.8,0c0.2,0,0.2,0,0.2,0.2c0,0.7,0,1.5,0,2.2c0,0.2-0.1,0.2-0.2,0.2c-0.6,0-1.2,0-1.8,0
		c-0.2,0-0.2,0-0.2,0.2c0,1.9,0,3.8,0,5.7c0,0.2,0,0.2-0.2,0.2c-0.9,0-1.8,0-2.7,0c-0.2,0-0.2-0.1-0.2-0.2c0-1.9,0-3.8,0-5.7
		c0-0.2-0.1-0.2-0.2-0.2c-0.3,0-0.5,0-0.8,0c-0.1,0-0.2,0-0.1-0.1c0-0.8,0-1.5,0-2.3c0-0.1,0.1-0.2,0.2-0.2c0.3,0,0.6,0,0.8,0
		c0.2,0,0.2,0,0.2-0.2c0-0.6,0.1-1.3,0.3-1.8c0.4-1.1,1.4-2,2.6-2.1c0.7-0.2,1.5-0.1,2.3,0.1c0.2,0,0.3,0.2,0.3,0.4c0,0,0,0,0,0
		c0,0.7,0,1.4,0,2.1L3446.2,1180.2z"/>
	<path id="Tracé_319" class="st0" d="M3447.2,1185.9c0-1.4,0-2.8,0-4.2c0-0.2,0.1-0.2,0.2-0.2c0.9,0,1.8,0,2.8,0
		c0.2,0,0.2,0,0.2,0.2c0,2.8,0,5.6,0,8.4c0,0.1,0,0.2-0.2,0.2c-0.9,0-1.9,0-2.8,0c-0.2,0-0.2-0.1-0.2-0.2
		C3447.2,1188.7,3447.2,1187.3,3447.2,1185.9z"/>
	<path id="Tracé_320" class="st0" d="M3448.8,1180.7c-1,0-1.7-0.8-1.7-1.8c0-1,0.8-1.7,1.8-1.7c1,0,1.7,0.8,1.7,1.8
		C3450.6,1179.9,3449.7,1180.7,3448.8,1180.7z"/>
	<path id="Tracé_321" class="st0" d="M3480.8,1190.2c0.1-0.1,0.1-0.2,0.1-0.3c0-1.8,0-3.6,0-5.4c0-0.3-0.1-0.6-0.1-0.8
		c0.1,0.3,0.1,0.6,0.1,0.8c0,1.9,0,3.7,0,5.6C3480.9,1190.2,3480.9,1190.3,3480.8,1190.2z"/>
	<path id="Tracé_322" class="st0" d="M3471,1181.7c0-0.1,0-0.2-0.2-0.2c-0.9,0-1.9,0-2.8,0c-0.2,0-0.2,0-0.2,0.2c0,0.2,0,0.5,0,0.7
		c-0.3-0.5-0.8-0.8-1.4-1c-1.6-0.5-3.3,0-4.3,1.3c-1.1,1.5-1.4,3.4-0.6,5.1c0.5,1.2,1.5,2.1,2.8,2.4c0.2,0,0.3,0.1,0.5,0.1h0.8
		c0,0,0.1,0,0.1,0c0.7-0.1,1.4-0.4,1.9-1c0,0,0-0.1,0.1-0.1c0,0.2,0,0.5,0,0.7c0,0.1,0,0.2,0.2,0.2c0.9,0,1.9,0,2.8,0
		c0.1,0,0.2,0,0.2-0.2C3471,1187.3,3471,1184.5,3471,1181.7z M3466.1,1187.6c-1,0-1.7-0.9-1.7-1.8s0.9-1.7,1.8-1.7
		c1,0,1.7,0.8,1.7,1.8C3467.9,1186.9,3467.1,1187.6,3466.1,1187.6C3466.1,1187.6,3466.1,1187.6,3466.1,1187.6L3466.1,1187.6z"/>
	<path id="Tracé_323" class="st0" d="M3498.2,1184.8c-0.2-1.1-0.8-2.1-1.8-2.8c-0.9-0.6-2-0.9-3.1-0.7c-1.3,0.1-2.4,0.7-3.2,1.7
		c-0.8,1-1.1,2.3-0.9,3.6c0.1,1.9,1.5,3.4,3.3,3.7c0.2,0.1,0.5,0.1,0.8,0.1h1.1c0,0,0.1,0,0.2,0c0.5,0,1-0.2,1.5-0.4
		c0.8-0.3,1.4-0.9,1.9-1.6c0-0.1,0.2-0.2,0-0.2c-0.8-0.3-1.6-0.6-2.5-1c-0.1,0-0.1,0-0.2,0c-0.4,0.5-1,0.7-1.6,0.6
		c-0.6,0-1.2-0.5-1.4-1.1c0-0.2,0-0.2,0.2-0.2c1.9,0,3.7,0,5.6,0c0.3,0,0.3,0,0.3-0.3C3498.3,1185.9,3498.3,1185.3,3498.2,1184.8z
		 M3495,1184.9c-0.4,0-0.9,0-1.3,0s-0.9,0-1.3,0c-0.2,0-0.2-0.1-0.1-0.2c0.2-0.6,0.7-1,1.3-1c0.7-0.1,1.3,0.3,1.6,0.9
		c0,0,0,0.1,0,0.1C3495.2,1184.8,3495.2,1184.9,3495,1184.9L3495,1184.9z"/>
</g>
<g id="Groupe_139" transform="translate(1396.758 -817.397)">
	<path id="Tracé_324" class="st0" d="M-171.4,826.4l-5.8,14h6.5l5.9-14H-171.4z M-179.2,845.4c0,1.9,1.5,3.5,3.4,3.5h0.1
		c2,0,3.7-1.7,3.7-3.7l0,0c0-1.9-1.5-3.5-3.4-3.5h-0.1C-177.5,841.7-179.2,843.4-179.2,845.4L-179.2,845.4L-179.2,845.4z M-185,841
		c0-1.7-1.4-3.1-3.1-3.1s-3.1,1.4-3.1,3.1c0,1.7,1.4,3.1,3.1,3.1S-185,842.7-185,841 M-202.5,841c0-1.7-1.4-3.1-3.1-3.1
		s-3.1,1.4-3.1,3.1c0,1.7,1.4,3.1,3.1,3.1S-202.5,842.7-202.5,841 M-239.8,844.2c-1.8,0-3.2-1.4-3.2-3.2s1.4-3.2,3.2-3.2
		c1.8,0,3.2,1.4,3.2,3.2C-236.7,842.7-238,844.2-239.8,844.2L-239.8,844.2 M-265.9,833.3l6.6,15.5l-2.4,5.6h5.8l8.8-21.1h-5.8
		l-3.6,9.1l-3.5-9.1L-265.9,833.3z M-197.3,841c0,4.6-3.7,8.3-8.3,8.3c0,0,0,0,0,0c-4.6,0-8.3-3.7-8.3-8.3l0,0
		c0-4.6,3.7-8.3,8.3-8.3c0,0,0,0,0,0C-201,832.7-197.3,836.4-197.3,841C-197.3,841-197.3,841-197.3,841 M-179.9,841
		c0,4.6-3.7,8.3-8.3,8.3c0,0,0,0,0,0c-4.6,0-8.3-3.7-8.3-8.3l0,0c0-4.6,3.7-8.3,8.3-8.3c0,0,0,0,0,0
		C-183.6,832.7-179.9,836.4-179.9,841C-179.9,841-179.9,841-179.9,841 M-229.7,826.4v22.3h5.4v-8.2c0-1.6,0.8-2.6,2-2.6
		s1.9,0.8,1.9,2.4v8.4h5.4V839c0-3.7-2-6.1-5.3-6.1c-1.6-0.1-3.1,0.6-4.1,1.9v-8.3L-229.7,826.4z M-236.8,833.3v1.4
		c-1-1.2-2.6-1.9-4.2-1.8c-4.2,0-7.4,3.7-7.4,8.1s3.1,8.1,7.4,8.1c1.6,0.1,3.1-0.6,4.2-1.8v1.4h5.3v-15.4H-236.8z"/>
	<path id="Tracé_325" class="st0" d="M-209.3,854.8c0.8,0,1.6,0.3,2.1,0.9c0.6,0.8,0.9,1.8,0.8,2.8v4.7h-3v-4.4
		c0-0.7-0.3-1.1-1-1.1c-0.3,0-0.6,0.1-0.8,0.3c-0.2,0.3-0.3,0.6-0.3,0.9v4.2h-3V855h3v0.8C-211,855.1-210.1,854.7-209.3,854.8"/>
	<path id="Tracé_326" class="st0" d="M-202.5,860.1c0.3,0.6,1,0.9,1.7,0.8c0.5,0,1-0.2,1.4-0.5l2,1.7c-0.9,0.9-2.2,1.4-3.5,1.3
		c-1.2,0.1-2.4-0.4-3.4-1.2c-0.8-0.8-1.3-1.9-1.2-3.1c-0.1-2.3,1.8-4.3,4.1-4.3c0,0,0,0,0,0c0.1,0,0.1,0,0.2,0
		c2.3-0.1,4.2,1.7,4.2,4c0,0,0,0,0,0c0,0.1,0,0.2,0,0.3c0,0.4,0,0.7-0.1,1.1L-202.5,860.1z M-202.5,858.2h2.7
		c-0.1-0.6-0.7-1-1.4-0.9C-201.7,857.2-202.3,857.6-202.5,858.2L-202.5,858.2z"/>
	<path id="Tracé_327" class="st0" d="M-187,855h3.2l-2.4,8.1h-3.1l-1-3.8l-1,3.8h-3.1l-2.4-8.1h3.2l0.9,4.5l1.2-4.5h2.3l1.2,4.5
		L-187,855z"/>
	<path id="Tracé_328" class="st0" d="M-180.4,857.4c0,0.1,0.1,0.2,0.3,0.3c0.2,0.1,0.5,0.1,0.8,0.2c0.3,0,0.7,0.1,1,0.2
		c0.3,0.1,0.7,0.2,1,0.4c0.3,0.2,0.6,0.5,0.8,0.8c0.4,0.8,0.4,1.8,0,2.6c-0.2,0.4-0.5,0.7-0.9,0.9c-0.4,0.2-0.8,0.3-1.2,0.4
		c-0.4,0.1-0.8,0.1-1.2,0.1c-2,0-3.2-0.6-3.8-1.9l2.6-1.2c0.1,0.5,0.6,0.9,1.2,0.8c0.4,0,0.5-0.1,0.5-0.4s-0.1-0.3-0.4-0.3l-1.1-0.3
		c-0.4-0.1-0.8-0.2-1.1-0.4c-0.4-0.2-0.7-0.4-1-0.8c-0.3-0.4-0.4-0.9-0.3-1.4c0-0.8,0.3-1.6,1-2.1c0.7-0.5,1.5-0.8,2.4-0.7
		c1.5-0.2,2.9,0.7,3.5,2.1l-2.5,0.9c-0.1-0.4-0.5-0.7-0.9-0.7C-180.3,857.1-180.4,857.2-180.4,857.4"/>
</g>
<g id="Groupe_305" transform="translate(839.884 -533.348)">
	<path id="Tracé_486" class="st0" d="M-515.4,560c-1.4,1.5-2.7,2.9-4,4.4c-0.8,0.8-1.3,0.8-2.1,0c-1.3-1.4-2.6-2.8-3.9-4.3
		c-0.2,0.1-0.1,0.3-0.1,0.5c0,2.5,0,5,0,7.5c0,1-0.7,1.8-1.7,1.8c-0.9,0.1-1.7-0.5-1.9-1.4c0-0.2-0.1-0.4-0.1-0.6
		c0-5.2,0-10.4,0-15.5c0-0.3,0-0.7,0.4-0.8c0.3-0.1,0.7,0,0.9,0.3c1.1,1.2,2.2,2.4,3.2,3.6c1.2,1.3,2.3,2.6,3.5,4
		c0.6,0.6,0.8,0.6,1.4,0c2.2-2.4,4.3-4.8,6.5-7.3c0.1-0.2,0.3-0.3,0.5-0.5c0.3-0.2,0.7-0.1,0.9,0.2c0.1,0.1,0.1,0.2,0.1,0.4
		c0,0.8,0,1.7,0,2.5c0,4.4,0,8.8,0,13.2c0.1,0.9-0.5,1.7-1.4,1.9c-1,0.3-2-0.3-2.2-1.3c0-0.2-0.1-0.3-0.1-0.5c0-2.6,0-5.1,0-7.7
		L-515.4,560z"/>
	<path id="Tracé_487" class="st0" d="M-574.2,570.1c-4.7,0-8.6-3.6-9.2-8.3c-0.6-4.9,2.6-9.4,7.4-10.3c2.4-0.5,5,0,7,1.4
		c0.7,0.4,1,1.1,0.8,1.9c-0.1,0.7-0.7,1.2-1.3,1.4c-0.4,0.1-0.9,0-1.2-0.3c-1.6-1.2-3.6-1.5-5.5-0.8c-2,0.7-3.4,2.5-3.6,4.6
		c-0.4,2,0.2,4,1.6,5.5c2.2,2.1,5.7,2.2,7.9,0.1c0.6-0.7,1.7-0.7,2.3,0c0.1,0.1,0.2,0.2,0.2,0.3c0.4,0.7,0.3,1.6-0.3,2.1
		C-569.6,569.2-571.8,570.1-574.2,570.1z"/>
	<path id="Tracé_488" class="st0" d="M-438.8,551.3c2-0.1,3.9,0.5,5.5,1.6c0.6,0.4,0.9,1.1,0.8,1.8c-0.1,0.7-0.6,1.3-1.4,1.4
		c-0.4,0.1-0.9,0-1.3-0.3c-1.6-1.2-3.8-1.4-5.6-0.7c-2.3,1.1-3.7,3.5-3.4,6.1c0,2.5,1.7,4.7,4,5.4c1.9,0.5,4,0.1,5.5-1.3
		c0.3-0.3,0.7-0.5,1.2-0.5c0.7-0.1,1.3,0.3,1.6,1c0.3,0.6,0.1,1.4-0.4,1.8c-3.7,3.5-9.5,3.3-13-0.5c-0.5-0.6-1-1.2-1.4-1.9
		c-2.5-4.5-0.9-10.3,3.6-12.8c0.7-0.4,1.4-0.7,2.2-0.9C-440.1,551.4-439.4,551.3-438.8,551.3z"/>
	<path id="Tracé_489" class="st0" d="M-479.9,562.5c1.5-1.6,2.8-3.1,4.2-4.6c0.4-0.6,1.2-1,1.9-0.8c0.9,0.2,1.5,1.2,1.3,2.1
		c-0.1,0.3-0.2,0.5-0.4,0.8c-0.9,1-1.8,2-2.7,2.9c-0.3,0.3-0.2,0.5,0,0.7c1,1.1,1.9,2.3,2.9,3.5c0.6,0.7,0.5,1.8-0.2,2.4
		c-0.6,0.7-1.6,0.7-2.2,0.1c0,0-0.1-0.1-0.1-0.1c-1.2-1.3-2.3-2.6-3.4-3.9c-0.4-0.4-0.7-0.8-1.1-1.3c-0.1,0.1-0.1,0.3-0.1,0.5
		c0,1.1,0,2.2,0,3.3c0,1-0.8,1.9-1.8,1.9c-1,0-1.8-0.8-1.9-1.8c0-0.1,0-0.2,0-0.4c0-4.7,0-9.4,0-14.1c0-0.5,0.1-1,0.3-1.4
		c0.4-0.6,1.2-0.9,2-0.7c0.8,0.2,1.4,1,1.4,1.8c0,2.8,0,5.6,0,8.4L-479.9,562.5z"/>
	<path id="Tracé_490" class="st0" d="M-541.3,558.3c1.5-1.4,3.6-1.9,5.5-1.3c1.8,0.5,3.1,2,3.4,3.9c0.2,0.8,0.2,1.6,0.2,2.4
		c0,1.6,0,3.1,0,4.7c0,1-0.7,1.8-1.6,1.9c-0.8,0.1-1.6-0.4-1.9-1.2c-0.1-0.3-0.2-0.6-0.1-1c0-1.7,0-3.5,0-5.2c0-1.6-0.7-2.3-2.3-2.4
		c-1.2,0-2.2,0.9-2.2,2.1c0,0,0,0.1,0,0.1c-0.1,1.8,0,3.5,0,5.3c0,0.5-0.1,1.1-0.4,1.5c-0.5,0.6-1.3,0.8-2,0.6
		c-0.8-0.3-1.3-1-1.2-1.8c0-3.1,0-6.2,0-9.3c0-0.2,0-0.3,0-0.5c0.1-0.7,0.7-1.2,1.4-1.3c0.7,0,1.3,0.5,1.4,1.2
		C-541.3,558.2-541.3,558.2-541.3,558.3z"/>
	<path id="Tracé_491" class="st0" d="M-456.1,563c0-0.8,0-1.6,0-2.4c0-0.4-0.1-0.5-0.4-0.4c-0.7,0.1-1.4-0.1-1.8-0.7
		c-0.4-0.5-0.4-1.2-0.1-1.7c0.3-0.6,0.8-0.9,1.5-0.9c0.9,0,0.9,0,0.9-0.9c0-0.8,0-1.6,0-2.4c-0.1-1,0.7-1.9,1.8-2c0,0,0,0,0.1,0
		c1,0,1.8,0.9,1.8,1.9c0,0,0,0.1,0,0.1c0,1,0,2,0,3c0,0.3,0.1,0.4,0.4,0.4c0.4,0,0.7,0,1.1,0c0.9,0,1.6,0.7,1.7,1.6c0,0,0,0.1,0,0.1
		c0,0.9-0.7,1.6-1.6,1.7c0,0,0,0,0,0c-0.4,0-0.8,0-1.1,0c-0.3,0-0.4,0.1-0.4,0.3c0,1.7-0.1,3.4,0.1,5.1c0.1,1,0.3,1.2,1.3,1.2
		c1.3,0,2.1,0.8,1.9,1.9c-0.1,0.7-0.6,1.2-1.3,1.3c-1,0.1-1.9,0.1-2.9-0.1c-1.4-0.4-2.5-1.6-2.6-3.1
		C-456.1,565.6-456.2,564.3-456.1,563z"/>
	<path id="Tracé_492" class="st0" d="M-490.4,558.3c0.8-0.7,1.8-1.2,2.8-1.4c0.4-0.1,0.9-0.1,1.3,0c0.8,0.1,1.4,0.9,1.4,1.7
		c0,0.9-0.7,1.6-1.6,1.6c-0.4,0-0.8,0-1.1,0.1c-1.4,0.3-2,1.1-2,2.8s0,3.3,0,5c0,0.8-0.6,1.6-1.4,1.8c-0.8,0.2-1.6-0.2-2-0.9
		c-0.2-0.3-0.3-0.7-0.3-1.1c0-3.1,0-6.2,0-9.3c-0.1-0.8,0.5-1.5,1.3-1.6c0,0,0,0,0,0C-491.2,556.9-490.6,557.4-490.4,558.3z"/>
	<path id="Tracé_493" class="st0" d="M-551,563.5c0-1.5,0-3.1,0-4.6c0-1,0.8-1.9,1.8-1.9c0,0,0,0,0,0c1,0,1.8,0.8,1.8,1.9
		c0,3.1,0,6.2,0,9.3c0,1-0.8,1.8-1.8,1.9c-1,0-1.8-0.9-1.8-1.9c0,0,0,0,0,0C-551,566.5-551,565-551,563.5z"/>
	<path id="Tracé_494" class="st0" d="M-547.1,553.5c0,1.2-1,2.1-2.2,2.1c-1.2,0-2.1-1-2.1-2.2c0-1.2,0.9-2.1,2.1-2.1c0,0,0,0,0,0
		C-548,551.3-547.1,552.3-547.1,553.5C-547.1,553.5-547.1,553.5-547.1,553.5z"/>
	<path id="Tracé_495" class="st0" d="M-597.3,554.7c-2.5-9.9-12-16.3-22.1-14.9c-4.5,0.6-8.7,2.8-11.8,6.2
		c-4.3,4.5-6.2,10.8-5.1,17c0.6,4.2,2.5,8.1,5.6,11.1c4.6,4.8,11.2,6.9,17.7,5.6c3.8-0.6,7.2-2.4,10-5c0.8-0.7,0.8-1.9,0.1-2.6
		c-0.1-0.1-0.1-0.1-0.2-0.2c-0.8-0.6-1.9-0.5-2.5,0.2c-2.7,2.6-6.3,4.1-10.1,4.3c-4.8,0.3-9.4-1.6-12.7-5.1
		c-0.2-0.2-0.3-0.5-0.1-0.7c0,0,0,0,0,0c2-3.2,4.1-6.5,6.1-9.7c0.7-1.1,1.3-2.1,2-3.2l0.1,0v0.5c0,1.8,0,3.6,0,5.3
		c0,0.7,0.1,1.3,0.2,2c0.1,1.1,0.9,2.1,2,2.5c1.1,0.3,2.3-0.1,3.1-1.1c0.4-0.4,0.8-0.9,1.1-1.4c1-1.6,2-3.2,3-4.8l1.9-3.1l0.1,0
		c0,1.1,0,2.3,0,3.4c0,1.1,0.2,2.1,0.5,3.1c0.9,3,4.1,4.6,7.1,3.7c0.6-0.2,1.1-0.4,1.6-0.8c1.8-1.2,2.9-3.1,3.1-5.3
		C-596.5,559.3-596.7,557-597.3,554.7z M-600.3,560.8c0,1.4-0.8,2.6-2.1,3.2c-0.9,0.3-1.9-0.1-2.3-0.9c-0.3-0.6-0.5-1.3-0.5-1.9
		c0-1.6,0-3.1,0-4.7c0-0.9-0.2-1.7-0.5-2.5c-0.6-1.4-2.2-2-3.6-1.4c-0.2,0.1-0.4,0.2-0.6,0.3c-0.9,0.6-1.6,1.4-2.1,2.3
		c-1.4,2.2-2.7,4.4-4.1,6.6c-0.1,0.2-0.3,0.4-0.5,0.7c0-2.8,0-5.4,0-8c0-0.6-0.1-1.3-0.3-1.9c-0.2-0.9-0.9-1.6-1.8-1.8
		c-0.9-0.2-1.8,0.1-2.4,0.9c-0.5,0.6-1,1.3-1.4,2.1c-2.9,4.6-5.7,9.1-8.6,13.7c-0.3-0.5-0.5-1-0.7-1.5c-3.4-8.5,0.7-18.1,9.1-21.5
		c0.8-0.3,1.7-0.6,2.5-0.8c7.2-1.5,14.5,1.9,17.8,8.5C-600.8,554.8-600.2,557.8-600.3,560.8L-600.3,560.8z"/>
	<path id="Tracé_496" class="st0" d="M-401.6,561c-0.8-2.5-3.2-4.2-5.9-4.2c-1.5,0-2.9,0.6-4,1.6c-0.2-1-0.8-1.6-1.5-1.5
		c-0.8,0.1-1.4,0.9-1.3,1.7c0,5,0,9.9,0,14.9c0,1,0.7,1.9,1.7,1.9c0,0,0,0,0.1,0c1,0,1.9-0.9,1.8-1.9c0,0,0,0,0,0c0-1.1,0-2.2,0-3.4
		v-1.1c0.2,0.1,0.3,0.2,0.4,0.2c2.1,1.2,4.7,1,6.6-0.4C-401.4,567-400.6,563.8-401.6,561z M-405.6,565.8c-0.9,1.1-2.5,1.4-3.7,0.5
		c-0.1-0.1-0.2-0.1-0.2-0.2c-1.3-1.3-1.5-3.4-0.4-4.8c0.7-0.9,1.8-1.3,2.9-1c1.1,0.3,1.9,1.1,2.1,2.2c0.1,0.3,0.1,0.5,0.1,0.8
		C-404.8,564.2-405.1,565.1-405.6,565.8L-405.6,565.8z"/>
	<path id="Tracé_497" class="st0" d="M-417.5,558.6c0-0.2,0-0.4-0.1-0.6c-0.2-0.6-0.7-1.1-1.4-1.1c-0.6,0-1.2,0.4-1.3,1
		c-0.1,0.2-0.1,0.5-0.2,0.8c-0.1-0.1-0.2-0.3-0.3-0.4c-2.2-2.2-5.8-2.1-7.9,0.1c-2.5,2.7-2.6,6.8-0.3,9.7c2.1,2.4,5.7,2.6,8.1,0.5
		c0.2-0.1,0.3-0.3,0.5-0.4c0,0.6,0.3,1.2,0.8,1.6c1,0.5,2-0.3,2-1.5C-417.5,565.1-417.5,561.8-417.5,558.6z M-422.5,566.2
		c-1,0.9-2.6,0.8-3.6-0.2c-1.2-1.3-1.3-3.1-0.4-4.6c0.5-0.8,1.5-1.3,2.5-1.2c1.1,0.1,2.1,0.8,2.5,1.8c0.2,0.4,0.3,0.8,0.3,1.3
		C-421.2,564.4-421.6,565.5-422.5,566.2L-422.5,566.2z"/>
	<path id="Tracé_498" class="st0" d="M-496.5,558.4c0-0.8-0.6-1.4-1.4-1.4c-0.7,0-1.4,0.6-1.4,1.3c0,0.1,0,0.3-0.1,0.5
		c-0.1-0.1-0.2-0.2-0.2-0.2c-2.1-2.2-5.7-2.3-7.9-0.1c-0.1,0.1-0.1,0.1-0.2,0.2c-1.8,1.8-2.4,4.4-1.6,6.8c0.4,2.1,2,3.9,4.1,4.5
		c2.1,0.6,4.4,0.1,5.9-1.5c0.1,0,0.1,0.1,0.1,0.2c0.2,1,0.7,1.5,1.5,1.5c0.8-0.1,1.4-0.8,1.4-1.7c0,0,0,0,0-0.1c0-2.1,0-4.2,0-6.4
		C-496.5,560.7-496.5,559.5-496.5,558.4z M-501.2,566.1c-1.1,1-2.9,1-3.9-0.2c-0.4-0.4-0.6-0.9-0.7-1.4c-0.1-0.3-0.1-0.7-0.1-1.1
		c-0.1-1,0.3-1.9,1-2.6c1.2-1,2.9-0.9,4,0.3c0.1,0.1,0.1,0.1,0.2,0.2C-499.8,562.8-499.9,564.8-501.2,566.1z"/>
	<path id="Tracé_499" class="st0" d="M-467.8,564.6c1.2,0,2.3,0,3.5,0c1.1,0,2.3,0,3.4,0c0.8,0,1.4-0.6,1.5-1.3
		c0.1-1.8-0.6-3.6-1.9-4.9c-1.5-1.4-3.6-1.9-5.6-1.5c-1.9,0.2-3.5,1.5-4.2,3.2c-0.6,1.4-0.8,2.8-0.6,4.3c0.1,2.4,1.6,4.5,3.9,5.2
		c1.3,0.4,2.7,0.5,4.1,0.4c1-0.1,1.9-0.4,2.7-1c0.7-0.4,0.9-1.3,0.5-2c0,0,0,0,0,0c-0.4-0.7-1.3-0.9-2-0.5c-1,0.5-2.1,0.6-3.1,0.5
		c-1.2,0-2.2-0.9-2.4-2C-468.1,564.7-468.1,564.6-467.8,564.6z M-468.1,562c0.1-0.5,0.4-0.9,0.8-1.2c1.1-0.7,2.4-0.7,3.5,0
		c0.5,0.3,0.8,0.9,0.8,1.5c-1.6,0-3.3,0-4.9,0C-468.1,562.2-468.1,562.1-468.1,562L-468.1,562z"/>
	<path id="Tracé_500" class="st0" d="M-559.2,556.8c-3.7-0.2-6.8,2.6-7.1,6.2c-0.1,3.7,2.6,6.8,6.3,7c3.7,0.1,6.7-2.8,6.8-6.5
		c0-0.1,0-0.1,0-0.2C-553.1,560-555.8,557.1-559.2,556.8z M-557.3,565.4c-0.7,1.3-2.3,1.8-3.6,1.1c-0.3-0.2-0.6-0.4-0.8-0.7
		c-1.1-1.2-1.2-3-0.3-4.4c0.7-1,2-1.5,3.3-1.1c1.2,0.4,2,1.5,2,2.7c0,0.1,0,0.2,0,0.4C-556.8,564.1-557,564.8-557.3,565.4
		L-557.3,565.4z"/>
</g>
</svg>
