<?xml version="1.0" encoding="utf-8"?>
<!-- Generator: Adobe Illustrator 23.1.1, SVG Export Plug-In . SVG Version: 6.00 Build 0)  -->
<svg version="1.1" id="Calque_1" xmlns="http://www.w3.org/2000/svg" xmlns:xlink="http://www.w3.org/1999/xlink" x="0px" y="0px"
	 viewBox="0 0 286.2 24.7" style="enable-background:new 0 0 286.2 24.7;" xml:space="preserve">
<style type="text/css">
	.st0{fill:#FFFFFF;}
</style>
<g id="Groupe_4" transform="translate(226.256 -1780.103)">
	<path id="Tracé_2" class="st0" d="M-47.8,1799.5c-2.8,0-5.5,0-8.3,0c-0.8,0-1.1-0.3-1-1.1c0-4.4,0-8.8,0-13.2c0-0.8,0.2-1,1-1
		c5.4,0,10.8,0,16.1,0c2.8,0,4.1,1.4,4.1,4.1c0,2.4,0,4.9,0,7.3c0,2.4-1.2,3.7-3.6,3.7C-42.2,1799.5-45,1799.5-47.8,1799.5
		L-47.8,1799.5z M-46.5,1787.4c-1.8,0-3.7,0-5.5,0c-0.7,0-0.9,0.2-0.9,0.9c0,2.5,0,4.9,0,7.4c0,0.6,0.2,0.9,0.8,0.9
		c3.7,0,7.4,0,11.1,0c0.6,0,0.9-0.2,0.9-0.8c0-2.5,0-5,0-7.5c0-0.6-0.2-0.8-0.8-0.8C-42.8,1787.4-44.6,1787.4-46.5,1787.4
		L-46.5,1787.4z"/>
	<path id="Tracé_3" class="st0" d="M24,1787.1c-0.4,0-0.7,0-1,0c-0.8,0-1.7,0-2.5,0c-4.2,0.1-8.3,0.1-12.5,0.2
		c-0.7,0-0.9,0.3-0.9,0.9c0,2.4,0,4.8,0,7.2c0,0.7,0.3,0.9,1,0.9c3.6,0,7.2,0,10.8,0c0.8,0,1.1-0.2,1-1c0-0.2,0-0.5,0-0.7
		c0.1-0.8-0.2-1.1-1.1-1.1c-1.8,0-3.7,0-5.5,0c-1.2,0-2.4-0.7-2.9-1.8c-0.4-0.8-0.3-1.1,0.7-1.1c4.1,0,8.2,0,12.2,0
		c0.7,0,0.9,0.2,0.9,0.9c0,1.4,0,2.9,0,4.3c0.1,1.7-1.2,3.3-2.9,3.4c0,0-0.1,0-0.1,0c-0.4,0.1-0.9,0.1-1.4,0.1c-4.2,0-8.4,0-12.5,0
		c-0.7,0-1.4-0.1-2.1-0.2c-1.3-0.3-2.2-1.4-2.2-2.7c0-3,0-6,0-9c0.1-1.4,1-2.5,2.4-2.8c0.6-0.1,1.1-0.2,1.7-0.2c4.3,0,8.7,0,13,0
		c0.9,0,1.8,0.3,2.7,0.7C23.5,1785.3,24,1786.2,24,1787.1z"/>
	<path id="Tracé_4" class="st0" d="M-200.6,1787.1h-1.2c-2.3,0-4.7,0-7,0c-2.6,0-5.3,0.1-7.9,0.2c-0.6,0-0.8,0.2-0.8,0.8
		c0,2.9-0.3,2.3,2.3,2.3c3.7,0,7.4,0,11.2,0c1.3-0.1,2.5,0.5,3.1,1.6c0.2,0.4,0.4,0.9,0.4,1.4c0.1,1,0,1.9,0,2.9
		c0,1.5-1.1,2.7-2.5,3c-0.3,0.1-0.7,0.1-1.1,0.1c-4.7,0-9.5,0-14.2,0c-1.2,0.1-2.3-0.5-2.9-1.6c-0.1-0.4-0.2-0.8-0.3-1.1
		c0.3-0.1,0.7-0.2,1-0.2c4.9,0,9.7,0,14.6,0c0.9,0,1.2-0.2,1.2-1.2c-0.1-2,0-2-2-2c-3.5,0-6.9,0-10.4,0c-0.6,0-1.1,0-1.6-0.1
		c-1.6-0.1-2.9-1.4-2.9-3.1c0-0.9,0-1.8,0-2.7c0-1.5,1.1-2.8,2.6-3.1c0.5-0.1,1.1-0.2,1.6-0.2c4.2,0,8.5,0,12.7,0
		c1,0,1.9,0.3,2.8,0.6C-201.2,1785.3-200.6,1786.2-200.6,1787.1z"/>
	<path id="Tracé_5" class="st0" d="M-16.5,1799.3c-2.2,0-4.4,0.1-6.6,0c-1-0.1-1.9-0.3-2.8-0.8c-0.8-0.5-1.3-1.4-1.2-2.3
		c0-3,0-5.9,0-8.9c0-1.3,0.9-2.5,2.2-2.8c0.6-0.2,1.2-0.2,1.8-0.2c4.3,0,8.7,0,13,0c2.2,0,3.6,0.9,4,2.6c0.1,0.3,0.1,0.7,0.1,1
		c0,2.5,0,5.1,0,7.6c0,2.4-1.1,3.6-3.6,3.7C-11.8,1799.4-14.2,1799.3-16.5,1799.3L-16.5,1799.3z M-16.5,1787.3c-1.8,0-3.7,0-5.5,0
		c-0.6,0-0.9,0.2-0.8,0.8c0,2.4,0,4.9,0,7.3c0,0.7,0.2,0.9,0.9,0.9c3.7,0,7.3,0,11,0c0.7,0,0.9-0.3,0.9-0.9c0-2.4,0-4.9,0-7.3
		c0-0.6-0.3-0.8-0.9-0.8C-12.8,1787.3-14.7,1787.3-16.5,1787.3L-16.5,1787.3z"/>
	<path id="Tracé_6" class="st0" d="M-174.9,1787.3h-1.2c-4.8,0-9.6,0-14.5,0c-1.2,0-1.5-0.4-0.8-1.4c0.5-0.6,1.2-1.1,2-1.4
		c0.6-0.2,1.2-0.3,1.8-0.2c4.3,0,8.5,0,12.8,0c0.5,0,1,0.1,1.5,0.2c1.5,0.2,2.7,1.6,2.6,3.1c0,0.8,0,1.7,0,2.5
		c0.1,1.7-1.2,3.1-2.9,3.2c-0.1,0-0.1,0-0.2,0c-0.5,0-1,0.1-1.5,0.1c-3.7,0-7.4,0-11.2,0c-1.3,0-1.3,0-1.3,1.3c0,1.3,0,2.6,0,4
		c0,0.6-0.2,0.9-0.8,0.9c-0.8,0-1.7,0-2.5,0c-0.7,0-0.9-0.3-0.9-1c0-1.5,0-3.1,0-4.6c-0.1-1.8,1.2-3.3,2.9-3.4c0.2,0,0.4,0,0.5,0
		c3.9,0,7.7,0,11.6,0c2.2,0,1.9,0.3,1.9-2C-174.8,1788.1-174.8,1787.8-174.9,1787.3z"/>
	<path id="Tracé_7" class="st0" d="M-142.5,1799.5c-1.8,0-3.4,0-5,0c-0.4-0.1-0.7-0.4-0.9-0.7c-0.9-1.7-2.8-2.6-4.7-2.3
		c-2.5,0.2-5.1,0.1-7.7,0c-0.9,0-1.1-0.3-0.7-1.1c0.5-1.1,1.7-1.8,2.9-1.8c1.5-0.1,3,0,4.6,0c0.3,0,0.7,0,1.3-0.1l-7.4-9.2
		c3.5,0.1,6.5,0.6,8.6,3.4c1.3,1.7,2.6,3.4,3.9,5.1c0.3,0.5,0.9,0.8,1.5,0.8c0.8,0,1.7,0,2.5,0.1c1.2,0.1,2.3,0.8,2.8,2
		c0.2,0.6,0.1,0.9-0.6,0.9c-1,0-1.9,0-3.2,0L-142.5,1799.5z"/>
	<path id="Tracé_8" class="st0" d="M-80.9,1796.4c0,1.3-0.9,2.4-2.2,2.7c-0.7,0.2-1.3,0.2-2,0.2c-4.2,0-8.4,0-12.6,0
		c-0.6,0-1.2-0.1-1.8-0.2c-1.4-0.2-2.4-1.4-2.4-2.9c-0.1-2,0-3.9,0-5.9c0-0.2,0.4-0.7,0.6-0.7c4.3,0,8.7,0,13,0c0.1,0,0.1,0,0.2,0.1
		c0.2,1.5-1.2,2.8-3.1,2.8c-1.8,0-3.6,0.1-5.3,0c-0.9,0-1.2,0.3-1.2,1.2c0,2.6,0,2.6,2.6,2.6c4.4,0,8.8,0,13.2,0H-80.9z"/>
	<path id="Tracé_9" class="st0" d="M54,1796.4c0,1.3-1,2.5-2.3,2.7c-0.6,0.1-1.1,0.2-1.7,0.2c-4.3,0-8.7,0-13,0
		c-0.6,0-1.2-0.1-1.8-0.2c-1.2-0.2-2.1-1.2-2.2-2.3c-0.1-2.3,0-4.6,0-7h13.8c0.1,1.2-0.7,2.3-1.8,2.6c-0.7,0.2-1.4,0.3-2.1,0.3
		c-1.6,0-3.1,0.1-4.7,0c-0.9,0-1.2,0.3-1.1,1.1c0,0.5,0,1.1,0,1.6c-0.1,0.8,0.3,1,1,1c2.4,0,4.7,0,7.1,0c2.6,0,5.1,0,7.7,0
		L54,1796.4z"/>
	<path id="Tracé_10" class="st0" d="M-119.3,1787.3c-2.5,0-5.1,0-7.6,0c-0.7,0-1,0.2-1,0.9c0,1.6,0,3.2,0,4.8c0,0.7-0.2,1.1-1,1
		c-0.8,0-1.6,0-2.4,0c-0.6,0-0.8-0.2-0.8-0.8c0-2,0-3.9,0-5.9c0-1.4,1-2.6,2.4-2.9c0.5-0.1,1-0.2,1.5-0.2c4.4,0,8.9,0,13.3,0
		c1.4-0.2,2.7,0.5,3.5,1.7c0.6,1,0.4,1.4-0.8,1.4C-114.5,1787.3-116.9,1787.3-119.3,1787.3z"/>
	<path id="Tracé_11" class="st0" d="M53.9,1787.2H33.1c0-1.3,0.9-2.5,2.2-2.7c0.6-0.2,1.2-0.2,1.8-0.2c4.3,0,8.6-0.1,12.9,0
		c1.1,0.1,2.1,0.4,3,0.9c0.6,0.3,0.8,1.2,1.2,1.8L53.9,1787.2z"/>
	<path id="Tracé_12" class="st0" d="M-91.4,1787.3c-3.1,0-6.3,0-9.4,0c-1.1,0-1.3-0.3-0.7-1.3c0.7-1.1,1.9-1.8,3.3-1.7
		c4.6,0,9.1,0,13.7,0c1.5,0,2.9,0.4,3.6,2c0.4,0.8,0.3,1-0.7,1C-85,1787.3-88.2,1787.3-91.4,1787.3z"/>
	<path id="Tracé_13" class="st0" d="M-111,1796.4c0,1.1-0.7,2.2-1.8,2.5c-0.7,0.2-1.4,0.3-2.2,0.3c-4.3,0-8.6,0.1-12.9,0
		c-1,0-1.9-0.3-2.8-0.7c-0.8-0.4-1.4-1.3-1.3-2.2H-111z"/>
</g>
</svg>
