<?xml version="1.0" encoding="utf-8"?>
<!-- Generator: Adobe Illustrator 23.1.1, SVG Export Plug-In . SVG Version: 6.00 Build 0)  -->
<svg version="1.1" id="Calque_1" xmlns="http://www.w3.org/2000/svg" xmlns:xlink="http://www.w3.org/1999/xlink" x="0px" y="0px"
	 viewBox="0 0 27.6 21.4" style="enable-background:new 0 0 27.6 21.4;" xml:space="preserve">
<style type="text/css">
	.st0{fill:#30ABA3;}
</style>
<path id="Icon_awesome-twitter" class="st0" d="M24,5.7c0,0.2,0,0.4,0,0.7c0.1,8-6.4,14.6-14.5,14.7c-0.1,0-0.1,0-0.2,0
	c-2.8,0-5.6-0.8-7.9-2.3c0.4,0,0.8,0.1,1.2,0.1c2.3,0,4.6-0.8,6.4-2.2c-2.2,0-4.1-1.5-4.8-3.6c0.3,0.1,0.6,0.1,1,0.1
	c0.5,0,0.9-0.1,1.4-0.2c-2.4-0.5-4.1-2.6-4.1-5.1V7.8C3.2,8.2,4,8.4,4.8,8.5c-2.3-1.5-3-4.5-1.6-6.9C5.8,4.8,9.7,6.7,13.8,7
	c-0.1-0.4-0.1-0.8-0.1-1.2c0-2.9,2.3-5.2,5.2-5.2c1.4,0,2.8,0.6,3.8,1.6C23.8,2,24.9,1.6,25.9,1c-0.4,1.2-1.2,2.2-2.3,2.8
	c1-0.1,2-0.4,3-0.8C25.9,4.1,25,5,24,5.7L24,5.7z"/>
</svg>
